# xmcd
#
# Track frame offsets:
#	150
#	6729
#	36233
#	61791
#	93342
#	124890
#	201505
#
# Disc length: 3551 seconds
#
# Revision: 1
# Processed by: cddbd v1.5.2PL0 Copyright (c) Steve Scherf et al.
# Submitted via: audiograbber 1.83.01
#
DISCID=620ddd07
DTITLE=Grateful Dead - 95-07-08A Soldier Field, Chicago IL
DYEAR=1900
DGENRE=
TTITLE0=Crowd and Tuning
TTITLE1=China Cat Sunflower
TTITLE2=I Know You Rider
TTITLE3=It's All Too Much
TTITLE4=Saint Of Circumstance
TTITLE5=Terrapin Station
TTITLE6=Drums
EXTD=
EXTT0=
EXTT1=
EXTT2=
EXTT3=
EXTT4=
EXTT5=
EXTT6=
PLAYORDER=
